<svg width="66" height="66" viewBox="0 0 66 66" fill="none" xmlns="http://www.w3.org/2000/svg">
<g clip-path="url(#clip0_152_212)">
<path d="M33 66C51.2254 66 66 51.2254 66 33C66 14.7746 51.2254 0 33 0C14.7746 0 0 14.7746 0 33C0 51.2254 14.7746 66 33 66Z" fill="#FFC200"/>
<path fill-rule="evenodd" clip-rule="evenodd" d="M56.1612 56.5042C49.9335 62.6427 41.5237 66.0579 32.7795 65.9997C24.0352 65.9414 15.6717 62.4144 9.52637 56.1934C10.3123 54.02 11.8388 52.193 13.8377 51.033C15.185 50.0369 16.6459 49.2045 18.1897 48.5532C15.8423 40.4869 22.2234 36.5215 24.6648 35.3799C24.6648 39.1039 28.1517 36.6326 32.4791 36.6796C36.0418 36.7191 43.0872 40.3053 43.0872 35.5743C47.0066 36.7341 51.2784 44.2034 48.3383 48.7925C49.5438 49.3819 50.6827 50.0986 51.7355 50.9305C53.7938 52.2403 55.3524 54.2025 56.1612 56.5042Z" fill="#677079"/>
<path fill-rule="evenodd" clip-rule="evenodd" d="M25.6654 41.3086L41.5994 41.4047V45.0753L41.592 45.1319C41.5809 45.2982 41.5559 45.4632 41.5172 45.6253L41.4638 45.9895L41.4318 46.0653C40.4001 51.4842 35.8858 53.5784 33.0984 55.0373C30.1615 53.4375 26.0093 50.555 25.6793 45.4555L25.6654 45.3925V45.1789C25.6631 45.1052 25.6617 45.0315 25.6611 44.9578C25.6611 44.9963 25.6643 45.0326 25.6654 45.071V41.3086Z" fill="#F9DCA4"/>
<path opacity="0.11" fill-rule="evenodd" clip-rule="evenodd" d="M41.6003 41.2417V45.5189C41.5972 45.9154 41.5633 46.311 41.4988 46.7022C41.418 47.1864 41.2818 47.6598 41.093 48.113C35.5567 52.2941 26.7353 48.8648 25.3267 41.7234L41.6003 41.2417Z" fill="black"/>
<path fill-rule="evenodd" clip-rule="evenodd" d="M19.3345 26.9502C14.0588 28.3065 18.5442 34.7357 21.8624 34.7079C20.5243 32.3106 19.6657 29.6756 19.3345 26.9502Z" fill="#F9DCA4"/>
<path fill-rule="evenodd" clip-rule="evenodd" d="M46.8165 26.9502C52.0923 28.3065 47.6068 34.7357 44.2876 34.7068C45.6261 32.31 46.4851 29.6754 46.8165 26.9502Z" fill="#F9DCA4"/>
<path fill-rule="evenodd" clip-rule="evenodd" d="M32.8217 12.1333C54.7395 12.1333 46.1979 46.7845 32.8217 46.7845C20.1876 46.7845 10.9038 12.1333 32.8217 12.1333Z" fill="#FFE8BE"/>
<path fill-rule="evenodd" clip-rule="evenodd" d="M22.4773 23.6076C22.6643 23.8126 22.803 24.0568 22.8831 24.3224C22.9633 24.588 22.9829 24.8682 22.9404 25.1424C22.898 25.4166 22.7947 25.6777 22.638 25.9067C22.4814 26.1357 22.2754 26.3266 22.0352 26.4655C20.4866 27.7396 20.43 32.1823 20.43 32.1823C19.832 31.5885 19.8459 28.4081 18.5494 26.5701C17.2528 24.7322 16.3793 11.8718 23.6297 7.19513C23.1841 7.71919 22.863 8.33732 22.6905 9.00318C22.5179 9.66903 22.4983 10.3653 22.6333 11.0398C22.6333 11.0398 27.6698 3.81716 36.0255 4.02541C35.3631 4.38661 34.7842 4.88334 34.3266 5.48321C33.8689 6.08308 33.5428 6.77265 33.3695 7.50698C33.3695 7.50698 40.6744 4.49318 46.7618 8.07834C45.1791 8.51578 43.6822 9.21889 42.3351 10.1577C45.2912 10.2388 48.148 10.7878 50.3021 12.7037C49.8385 12.8525 49.4094 13.0928 49.0402 13.4102C48.671 13.7277 48.3692 14.1159 48.1526 14.5519C47.936 14.988 47.8089 15.463 47.779 15.949C47.749 16.435 47.8168 16.922 47.9782 17.3814C48.8924 21.1225 48.9778 24.603 48.0925 26.474C47.2071 28.3451 46.7895 27.1372 46.2353 31.0609C46.2081 31.326 46.1197 31.5811 45.977 31.8061C45.8342 32.0312 45.6411 32.2199 45.4129 32.3574C45.3916 32.6415 45.8209 28.3462 44.7134 27.2024C43.607 26.0597 44.3023 24.6553 44.7444 23.8244C47.8308 18.0286 38.5876 15.4024 33.535 15.4088C29.1532 15.4142 18.5835 17.4059 22.4773 23.6076Z" fill="#8A5C42"/>
<path fill-rule="evenodd" clip-rule="evenodd" d="M21.1348 52.5036C21.1668 52.5442 32.2608 66.903 45.3028 52.29C43.7276 56.6174 36.9332 60.0541 33.0468 60.0435C25.6245 60.0221 21.5171 54.0629 21.1348 52.5036Z" fill="#434955"/>
<path fill-rule="evenodd" clip-rule="evenodd" d="M38.8056 65.4906C38.3677 65.5675 37.9277 65.6348 37.4845 65.6957V56.1513C37.5007 55.9914 37.5789 55.8443 37.7022 55.7413C37.8256 55.6383 37.9843 55.5877 38.1445 55.6002C38.3048 55.5874 38.4639 55.6379 38.5874 55.7409C38.711 55.8439 38.7893 55.9912 38.8056 56.1513V65.4906ZM28.3181 65.6679C27.8753 65.6045 27.4349 65.5333 26.9971 65.4543V56.1513C27.0133 55.9914 27.0915 55.8443 27.2148 55.7413C27.3381 55.6383 27.4969 55.5877 27.6571 55.6002C27.8176 55.5871 27.9769 55.6374 28.1007 55.7405C28.2245 55.8435 28.303 55.991 28.3192 56.1513L28.3181 65.6679Z" fill="#E6E6E6"/>
</g>
<defs>
<clipPath id="clip0_152_212">
<rect width="66" height="66" fill="white"/>
</clipPath>
</defs>
</svg>
