<svg width="68" height="68" viewBox="0 0 68 68" fill="none" xmlns="http://www.w3.org/2000/svg">
<g clip-path="url(#clip0_152_79)">
<path d="M57.8 0H10.2C4.5667 0 0 4.5667 0 10.2V57.8C0 63.4333 4.5667 68 10.2 68H57.8C63.4333 68 68 63.4333 68 57.8V10.2C68 4.5667 63.4333 0 57.8 0Z" fill="white"/>
<path d="M39.3125 30.0156H44.8906ZM32.6719 30.0156H38.25ZM26.1641 30.0156H31.7422ZM19.6562 30.0156H25.1016ZM13.0156 30.0156H18.5938ZM19.6562 23.9062H25.1016ZM26.1641 23.9062H31.7422ZM32.6719 23.9062H38.25ZM32.6719 17.7969H38.25Z" fill="black"/>
<path d="M39.3125 30.0156H44.8906M32.6719 30.0156H38.25M26.1641 30.0156H31.7422M19.6562 30.0156H25.1016M13.0156 30.0156H18.5938M19.6562 23.9062H25.1016M26.1641 23.9062H31.7422M32.6719 23.9062H38.25M32.6719 17.7969H38.25" stroke="#066DA5" stroke-width="5.04688"/>
<path d="M62.6876 30.2812C62.6876 30.2812 60.297 28.0234 55.3829 28.8203C54.8516 24.9688 50.7345 22.7109 50.7345 22.7109C50.7345 22.7109 46.8829 27.3594 49.672 32.5391C48.8751 32.9375 47.547 33.4688 45.5548 33.4688H9.03134C8.36727 35.9922 8.36727 52.7266 26.6954 52.7266C39.8438 52.7266 49.672 46.6172 54.3204 35.4609C61.2266 35.9922 62.6876 30.2812 62.6876 30.2812Z" fill="#066DA5"/>
</g>
<defs>
<clipPath id="clip0_152_79">
<rect width="68" height="68" fill="white"/>
</clipPath>
</defs>
</svg>
