<svg width="175" height="37" viewBox="0 0 175 37" fill="none" xmlns="http://www.w3.org/2000/svg">
<path d="M13.0093 3.49753C11.6893 3.49753 10.69 3.68875 10.0114 4.07119C9.34524 4.45364 9.05532 5.11984 9.14168 6.06978L9.78937 12.2691C9.82638 12.5775 9.84489 12.8859 9.84489 13.1944C9.84489 14.6748 9.4131 15.7975 8.54951 16.5624C7.69826 17.3149 6.46456 17.8207 4.84842 18.0798C6.52625 18.3512 7.77845 18.8509 8.60503 19.5787C9.4316 20.2943 9.84489 21.3984 9.84489 22.8912C9.84489 23.1996 9.82638 23.5327 9.78937 23.8905L9.14168 30.0898C9.12935 30.1639 9.12318 30.2625 9.12318 30.3859C9.12318 31.2248 9.45628 31.8108 10.1225 32.1439C10.801 32.4894 11.7633 32.6621 13.0093 32.6621V36.1596C10.1842 36.1596 8.07454 35.7402 6.68046 34.9012C5.28638 34.0747 4.58935 32.6806 4.58935 30.719C4.58935 30.3859 4.60785 30.0467 4.64486 29.7012L5.25554 23.798C5.28022 23.5266 5.29255 23.3415 5.29255 23.2428C5.29255 22.1078 4.86076 21.2936 3.99717 20.8001C3.13359 20.3066 1.8012 20.0599 0 20.0599V16.0997C1.78886 16.0997 3.11508 15.853 3.97867 15.3595C4.85459 14.866 5.29255 14.058 5.29255 12.9353C5.29255 12.8119 5.28022 12.6269 5.25554 12.3801L4.64486 6.4769C4.60785 6.10679 4.58935 5.75519 4.58935 5.42209C4.58935 3.46052 5.28638 2.06644 6.68046 1.23986C8.07454 0.413288 10.1842 0 13.0093 0V3.49753Z" fill="white"/>
<path d="M22.016 5.4406H37.9307V9.23421H32.5086V27.24H37.9307V31.0336H22.016V27.24H27.4381V9.23421H22.016V5.4406Z" fill="white"/>
<path d="M47.7702 9.77087C48.276 13.62 48.5289 17.1175 48.5289 20.2634V31.0336H44.1246V5.4406H50.5645L58.0222 26.6663C57.5164 23.2243 57.2635 19.77 57.2635 16.3033V5.4406H61.6678V31.0336H55.3019L47.7702 9.77087Z" fill="white"/>
<path d="M77.9656 4.88543C79.6681 4.88543 81.1362 5.1075 82.3699 5.55163C83.6159 5.99576 84.7941 6.66812 85.9045 7.56872L83.3322 10.6221C81.8024 9.36375 80.0752 8.73456 78.1507 8.73456C76.9046 8.73456 75.7882 9.06149 74.8012 9.71535C73.8266 10.3692 73.0494 11.3993 72.4695 12.8058C71.8897 14.2122 71.5998 16.0072 71.5998 18.1908C71.5998 21.3861 72.1919 23.7548 73.3763 25.2969C74.573 26.8267 76.1768 27.5916 78.1877 27.5916C79.3844 27.5916 80.4145 27.3942 81.2781 26.9994C82.1417 26.6046 83.0053 26.0556 83.8689 25.3524L86.2561 28.3688C84.0848 30.5155 81.3213 31.5888 77.9656 31.5888C75.6956 31.5888 73.6847 31.0768 71.9329 30.0528C70.1933 29.0165 68.8301 27.4929 67.8432 25.482C66.8562 23.4587 66.3627 21.0283 66.3627 18.1908C66.3627 15.415 66.8685 13.0278 67.8802 11.0292C68.9041 9.01831 70.292 7.4947 72.0439 6.45839C73.8081 5.40975 75.782 4.88543 77.9656 4.88543Z" fill="#F2B802"/>
<path d="M108.698 18.2278C108.698 20.9173 108.315 23.2675 107.55 25.2784C106.798 27.277 105.675 28.8315 104.182 29.9418C102.69 31.0398 100.876 31.5888 98.7418 31.5888C96.5952 31.5888 94.7755 31.0521 93.2827 29.9788C91.8023 28.8931 90.6796 27.351 89.9147 25.3524C89.1622 23.3539 88.7859 20.9852 88.7859 18.2464C88.7859 15.5692 89.1622 13.2252 89.9147 11.2143C90.6796 9.20337 91.8084 7.64891 93.3012 6.55092C94.794 5.4406 96.6075 4.88543 98.7418 4.88543C100.888 4.88543 102.702 5.42826 104.182 6.51391C105.675 7.58723 106.798 9.12934 107.55 11.1403C108.315 13.1389 108.698 15.5014 108.698 18.2278ZM103.479 18.2278C103.479 16.0319 103.319 14.2368 102.998 12.8428C102.677 11.4487 102.165 10.4124 101.462 9.73386C100.771 9.04299 99.8645 8.69755 98.7418 8.69755C97.6191 8.69755 96.7062 9.04299 96.003 9.73386C95.3121 10.4247 94.8063 11.4734 94.4856 12.8798C94.1648 14.2739 94.0044 16.0627 94.0044 18.2464C94.0044 21.5033 94.3807 23.9028 95.1332 25.445C95.8981 26.9871 97.101 27.7581 98.7418 27.7581C99.8768 27.7581 100.79 27.4127 101.481 26.7218C102.184 26.031 102.69 24.9885 102.998 23.5944C103.319 22.2003 103.479 20.4115 103.479 18.2278Z" fill="#F2B802"/>
<path d="M131.547 18.1168C131.547 22.9159 130.412 26.2715 128.142 28.1838C125.884 30.0837 122.985 31.0336 119.444 31.0336H112.893V5.4406H119C121.406 5.4406 123.521 5.78603 125.347 6.4769C127.185 7.16777 128.678 8.45081 129.826 10.326C130.973 12.1889 131.547 14.7858 131.547 18.1168ZM126.254 18.1168C126.254 15.7234 125.964 13.8729 125.384 12.5652C124.817 11.2575 124.064 10.3754 123.127 9.91891C122.201 9.45011 121.109 9.2157 119.851 9.2157H117.964V27.277H119.87C121.831 27.277 123.386 26.6046 124.533 25.2599C125.68 23.9028 126.254 21.5218 126.254 18.1168Z" fill="#F2B802"/>
<path d="M152.785 9.17869H142.422V16.1923H151.49V19.8748H142.422V27.314H153.433V31.0336H137.352V5.4406H153.303L152.785 9.17869Z" fill="#F2B802"/>
<path d="M161.551 0C164.377 0 166.486 0.419456 167.88 1.25837C169.274 2.08494 169.971 3.47902 169.971 5.4406C169.971 5.76136 169.953 6.10062 169.916 6.45839L169.305 12.3801C169.281 12.6269 169.268 12.7996 169.268 12.8983C169.268 14.0209 169.712 14.8352 170.601 15.341C171.489 15.8468 172.809 16.0997 174.561 16.0997V20.0599C172.809 20.0599 171.489 20.3128 170.601 20.8186C169.712 21.3244 169.268 22.1448 169.268 23.2798C169.268 23.3785 169.281 23.5512 169.305 23.798L169.916 29.6827C169.953 30.0528 169.971 30.4044 169.971 30.7375C169.971 32.6991 169.274 34.0932 167.88 34.9197C166.486 35.7463 164.377 36.1596 161.551 36.1596V32.6621C162.872 32.6621 163.865 32.4709 164.531 32.0884C165.209 31.706 165.505 31.0398 165.419 30.0898L164.771 23.8905C164.734 23.5574 164.716 23.2428 164.716 22.9467C164.716 21.4416 165.148 20.319 166.011 19.5787C166.887 18.8385 168.176 18.345 169.879 18.0983C168.139 17.8269 166.844 17.3211 165.993 16.5809C165.142 15.8406 164.716 14.7242 164.716 13.2314C164.716 12.923 164.734 12.6022 164.771 12.2691L165.419 6.06978C165.431 5.99576 165.438 5.89706 165.438 5.77369C165.438 4.93478 165.098 4.34878 164.42 4.01568C163.754 3.67024 162.798 3.49753 161.551 3.49753V0Z" fill="#F2B802"/>
</svg>
